<svg width="780" height="520" viewBox="0 0 780 520" xmlns="http://www.w3.org/2000/svg" style="background:#ffffff; font-family: Arial, Helvetica, sans-serif;">
<defs>
  <marker id="arr" viewBox="0 0 10 10" refX="9" refY="5" markerWidth="7" markerHeight="7" orient="auto-start-reverse">
    <path d="M1 1L9 5L1 9" fill="none" stroke="#555" stroke-width="1.2" stroke-linecap="round" stroke-linejoin="round"/>
  </marker>
</defs>

<!-- NODO: Celular del Padre -->
<rect x="10" y="10" width="160" height="190" rx="4" fill="#f9f9f9" stroke="#333" stroke-width="1.5"/>
<text x="90" y="28" text-anchor="middle" font-size="12" font-weight="700" fill="#111">Celular del padre</text>
<text x="90" y="42" text-anchor="middle" font-size="10" fill="#555">Android</text>
<rect x="26" y="56" width="130" height="28" rx="2" fill="#fff" stroke="#555" stroke-width="1"/>
<rect x="18" y="61" width="10" height="7" rx="1" fill="#fff" stroke="#555" stroke-width="1"/>
<rect x="18" y="72" width="10" height="7" rx="1" fill="#fff" stroke="#555" stroke-width="1"/>
<text x="91" y="74" text-anchor="middle" font-size="10" fill="#111">App Guardian Escolar</text>
<rect x="26" y="96" width="130" height="28" rx="2" fill="#fff" stroke="#555" stroke-width="1"/>
<rect x="18" y="101" width="10" height="7" rx="1" fill="#fff" stroke="#555" stroke-width="1"/>
<rect x="18" y="112" width="10" height="7" rx="1" fill="#fff" stroke="#555" stroke-width="1"/>
<text x="91" y="114" text-anchor="middle" font-size="10" fill="#111">GPS del celular</text>
<rect x="26" y="136" width="130" height="28" rx="2" fill="#fff" stroke="#555" stroke-width="1"/>
<rect x="18" y="141" width="10" height="7" rx="1" fill="#fff" stroke="#555" stroke-width="1"/>
<rect x="18" y="152" width="10" height="7" rx="1" fill="#fff" stroke="#555" stroke-width="1"/>
<text x="91" y="154" text-anchor="middle" font-size="10" fill="#111">Recibir alertas</text>
<rect x="26" y="172" width="130" height="22" rx="2" fill="#fff" stroke="#555" stroke-width="1"/>
<rect x="18" y="176" width="10" height="7" rx="1" fill="#fff" stroke="#555" stroke-width="1"/>
<rect x="18" y="185" width="10" height="7" rx="1" fill="#fff" stroke="#555" stroke-width="1"/>
<text x="91" y="187" text-anchor="middle" font-size="10" fill="#111">Ver mapa del hijo</text>

<!-- NODO: Celular del Estudiante -->
<rect x="200" y="10" width="160" height="150" rx="4" fill="#f9f9f9" stroke="#333" stroke-width="1.5"/>
<text x="280" y="28" text-anchor="middle" font-size="12" font-weight="700" fill="#111">Celular del hijo</text>
<text x="280" y="42" text-anchor="middle" font-size="10" fill="#555">Android</text>
<rect x="216" y="56" width="130" height="28" rx="2" fill="#fff" stroke="#555" stroke-width="1"/>
<rect x="208" y="61" width="10" height="7" rx="1" fill="#fff" stroke="#555" stroke-width="1"/>
<rect x="208" y="72" width="10" height="7" rx="1" fill="#fff" stroke="#555" stroke-width="1"/>
<text x="281" y="74" text-anchor="middle" font-size="10" fill="#111">App Guardian Escolar</text>
<rect x="216" y="96" width="130" height="28" rx="2" fill="#fff" stroke="#555" stroke-width="1"/>
<rect x="208" y="101" width="10" height="7" rx="1" fill="#fff" stroke="#555" stroke-width="1"/>
<rect x="208" y="112" width="10" height="7" rx="1" fill="#fff" stroke="#555" stroke-width="1"/>
<text x="281" y="114" text-anchor="middle" font-size="10" fill="#111">GPS del celular</text>
<rect x="216" y="136" width="130" height="22" rx="2" fill="#fff" stroke="#555" stroke-width="1"/>
<rect x="208" y="140" width="10" height="7" rx="1" fill="#fff" stroke="#555" stroke-width="1"/>
<rect x="208" y="149" width="10" height="7" rx="1" fill="#fff" stroke="#555" stroke-width="1"/>
<text x="281" y="151" text-anchor="middle" font-size="10" fill="#111">Envía ubicación GPS</text>

<!-- NODO: Computador Admin -->
<rect x="10" y="230" width="160" height="130" rx="4" fill="#f9f9f9" stroke="#333" stroke-width="1.5"/>
<text x="90" y="248" text-anchor="middle" font-size="12" font-weight="700" fill="#111">Computador admin</text>
<text x="90" y="262" text-anchor="middle" font-size="10" fill="#555">Windows · Chrome</text>
<rect x="26" y="276" width="130" height="28" rx="2" fill="#fff" stroke="#555" stroke-width="1"/>
<rect x="18" y="281" width="10" height="7" rx="1" fill="#fff" stroke="#555" stroke-width="1"/>
<rect x="18" y="292" width="10" height="7" rx="1" fill="#fff" stroke="#555" stroke-width="1"/>
<text x="91" y="294" text-anchor="middle" font-size="10" fill="#111">Panel web admin</text>
<rect x="26" y="316" width="130" height="28" rx="2" fill="#fff" stroke="#555" stroke-width="1"/>
<rect x="18" y="321" width="10" height="7" rx="1" fill="#fff" stroke="#555" stroke-width="1"/>
<rect x="18" y="332" width="10" height="7" rx="1" fill="#fff" stroke="#555" stroke-width="1"/>
<text x="91" y="334" text-anchor="middle" font-size="10" fill="#111">Gestionar rutas/usuarios</text>

<!-- NODO: Servidor en la nube -->
<rect x="390" y="10" width="230" height="310" rx="4" fill="#f9f9f9" stroke="#333" stroke-width="1.5"/>
<text x="505" y="30" text-anchor="middle" font-size="13" font-weight="700" fill="#111">Servidor en la nube</text>
<rect x="406" y="46" width="198" height="28" rx="2" fill="#fff" stroke="#555" stroke-width="1"/>
<rect x="398" y="51" width="10" height="7" rx="1" fill="#fff" stroke="#555" stroke-width="1"/>
<rect x="398" y="62" width="10" height="7" rx="1" fill="#fff" stroke="#555" stroke-width="1"/>
<text x="505" y="64" text-anchor="middle" font-size="10" fill="#111">API principal del sistema</text>
<rect x="406" y="86" width="198" height="28" rx="2" fill="#fff" stroke="#555" stroke-width="1"/>
<rect x="398" y="91" width="10" height="7" rx="1" fill="#fff" stroke="#555" stroke-width="1"/>
<rect x="398" y="102" width="10" height="7" rx="1" fill="#fff" stroke="#555" stroke-width="1"/>
<text x="505" y="104" text-anchor="middle" font-size="10" fill="#111">Login y usuarios</text>
<rect x="406" y="126" width="198" height="28" rx="2" fill="#fff" stroke="#555" stroke-width="1"/>
<rect x="398" y="131" width="10" height="7" rx="1" fill="#fff" stroke="#555" stroke-width="1"/>
<rect x="398" y="142" width="10" height="7" rx="1" fill="#fff" stroke="#555" stroke-width="1"/>
<text x="505" y="144" text-anchor="middle" font-size="10" fill="#111">Datos del estudiante</text>
<rect x="406" y="166" width="198" height="28" rx="2" fill="#fff" stroke="#555" stroke-width="1"/>
<rect x="398" y="171" width="10" height="7" rx="1" fill="#fff" stroke="#555" stroke-width="1"/>
<rect x="398" y="182" width="10" height="7" rx="1" fill="#fff" stroke="#555" stroke-width="1"/>
<text x="505" y="184" text-anchor="middle" font-size="10" fill="#111">Rastreo GPS</text>
<rect x="406" y="206" width="198" height="28" rx="2" fill="#fff" stroke="#555" stroke-width="1"/>
<rect x="398" y="211" width="10" height="7" rx="1" fill="#fff" stroke="#555" stroke-width="1"/>
<rect x="398" y="222" width="10" height="7" rx="1" fill="#fff" stroke="#555" stroke-width="1"/>
<text x="505" y="224" text-anchor="middle" font-size="10" fill="#111">Alertas y avisos</text>
<rect x="406" y="246" width="198" height="28" rx="2" fill="#fff" stroke="#555" stroke-width="1"/>
<rect x="398" y="251" width="10" height="7" rx="1" fill="#fff" stroke="#555" stroke-width="1"/>
<rect x="398" y="262" width="10" height="7" rx="1" fill="#fff" stroke="#555" stroke-width="1"/>
<text x="505" y="264" text-anchor="middle" font-size="10" fill="#111">Rutas y paradas</text>
<rect x="406" y="286" width="198" height="28" rx="2" fill="#fff" stroke="#555" stroke-width="1"/>
<rect x="398" y="291" width="10" height="7" rx="1" fill="#fff" stroke="#555" stroke-width="1"/>
<rect x="398" y="302" width="10" height="7" rx="1" fill="#fff" stroke="#555" stroke-width="1"/>
<text x="505" y="304" text-anchor="middle" font-size="10" fill="#111">Balanceador de carga</text>

<!-- NODO: Base de datos -->
<rect x="420" y="360" width="160" height="90" rx="4" fill="#f9f9f9" stroke="#333" stroke-width="1.5"/>
<text x="500" y="378" text-anchor="middle" font-size="12" font-weight="700" fill="#111">Base de datos</text>
<rect x="436" y="390" width="128" height="22" rx="2" fill="#fff" stroke="#555" stroke-width="1"/>
<rect x="428" y="394" width="10" height="7" rx="1" fill="#fff" stroke="#555" stroke-width="1"/>
<rect x="428" y="403" width="10" height="7" rx="1" fill="#fff" stroke="#555" stroke-width="1"/>
<text x="500" y="405" text-anchor="middle" font-size="10" fill="#111">PostgreSQL</text>
<rect x="436" y="420" width="128" height="22" rx="2" fill="#fff" stroke="#555" stroke-width="1"/>
<rect x="428" y="424" width="10" height="7" rx="1" fill="#fff" stroke="#555" stroke-width="1"/>
<rect x="428" y="433" width="10" height="7" rx="1" fill="#fff" stroke="#555" stroke-width="1"/>
<text x="500" y="435" text-anchor="middle" font-size="10" fill="#111">20 tablas del sistema</text>

<!-- NODO: Servicios externos -->
<rect x="640" y="100" width="130" height="150" rx="4" fill="#f9f9f9" stroke="#333" stroke-width="1.5"/>
<text x="705" y="118" text-anchor="middle" font-size="12" font-weight="700" fill="#111">Servicios externos</text>
<rect x="648" y="130" width="114" height="28" rx="2" fill="#fff" stroke="#555" stroke-width="1"/>
<rect x="640" y="135" width="10" height="7" rx="1" fill="#fff" stroke="#555" stroke-width="1"/>
<rect x="640" y="146" width="10" height="7" rx="1" fill="#fff" stroke="#555" stroke-width="1"/>
<text x="705" y="148" text-anchor="middle" font-size="10" fill="#111">Google Maps</text>
<rect x="648" y="170" width="114" height="28" rx="2" fill="#fff" stroke="#555" stroke-width="1"/>
<rect x="640" y="175" width="10" height="7" rx="1" fill="#fff" stroke="#555" stroke-width="1"/>
<rect x="640" y="186" width="10" height="7" rx="1" fill="#fff" stroke="#555" stroke-width="1"/>
<text x="705" y="188" text-anchor="middle" font-size="10" fill="#111">Avisos push</text>
<rect x="648" y="210" width="114" height="28" rx="2" fill="#fff" stroke="#555" stroke-width="1"/>
<rect x="640" y="215" width="10" height="7" rx="1" fill="#fff" stroke="#555" stroke-width="1"/>
<rect x="640" y="226" width="10" height="7" rx="1" fill="#fff" stroke="#555" stroke-width="1"/>
<text x="705" y="228" text-anchor="middle" font-size="10" fill="#111">Correo electrónico</text>

<!-- CONEXIONES -->
<line x1="170" y1="105" x2="390" y2="160" stroke="#555" stroke-width="1.2" marker-end="url(#arr)"/>
<text x="272" y="120" text-anchor="middle" font-size="9" fill="#555">HTTPS</text>
<line x1="360" y1="110" x2="390" y2="170" stroke="#555" stroke-width="1.2" marker-end="url(#arr)"/>
<text x="382" y="134" text-anchor="middle" font-size="9" fill="#555">HTTPS</text>
<line x1="170" y1="290" x2="390" y2="230" stroke="#555" stroke-width="1.2" marker-end="url(#arr)"/>
<text x="272" y="268" text-anchor="middle" font-size="9" fill="#555">HTTPS</text>
<line x1="500" y1="320" x2="500" y2="360" stroke="#555" stroke-width="1.2" marker-end="url(#arr)"/>
<line x1="620" y1="200" x2="640" y2="200" stroke="#555" stroke-width="1.2" marker-end="url(#arr)"/>

<!-- TÍTULO -->
<text x="390" y="478" text-anchor="middle" font-size="13" font-weight="700" fill="#222">Diagrama de despliegue — GPS Guardian Escolar</text>
<text x="390" y="496" text-anchor="middle" font-size="10" fill="#666">Celular del hijo envía ubicación GPS → Servidor → App del padre</text>
</svg>
